# xmcd
#
# Track frame offsets: 
#        150
#        17304
#        26684
#        45749
#        76595
#        92490
#        112025
#        131473
#        141740
#        158109
#
# Disc length: 2402 seconds
#
# Revision: 0
# Processed by: cddbd v1.5.2PL0 Copyright (c) Steve Scherf et al.
# Submitted via: ExactAudioCopy v0.99pb1
#
DISCID=7509600a
DTITLE=Various Artist - Master Cuts Life Style - Soul Sessions [CD 2)
DYEAR=2007
DGENRE=Soul
TTITLE0=The O'Jays - For The Love Of Money
TTITLE1=Bill Withers - Ain't No Sunshine
TTITLE2=Simone Trust and Gregg Holmes - On My Own
TTITLE3=Marlena Shaw - Yu Ma - Go Away Little Girl
TTITLE4=Terri Love - Moving On
TTITLE5=Mozez - Venus Rise
TTITLE6=Maxwell - Sumthin Sumthin
TTITLE7=Soul Sisters - Soul Train
TTITLE8=Memphis Soul - Something Got A Hold On Me
TTITLE9=Harlem Nights - Bullet
EXTD=
EXTT0=
EXTT1=
EXTT2=
EXTT3=
EXTT4=
EXTT5=
EXTT6=
EXTT7=
EXTT8=
EXTT9=
PLAYORDER=
